<svg width="657.9px" height="121.6px" xmlns="http://www.w3.org/2000/svg" viewBox="-78.96251220703124 14.199996948242188 657.9250244140625 121.60000610351562" style="background: none" preserveAspectRatio="xMidYMid"><defs><linearGradient id="editing-sticker-gradient" x1="0.5" y1="0.2" x2="0.5" y2="0.8"><stop offset="0" stop-color="#0680d4"></stop><stop offset="1" stop-color="#12191f"></stop></linearGradient><filter id="editing-sticker" x="-100%" y="-100%" width="300%" height="300%"><feMorphology operator="erode" radius="1" in="SourceAlpha" result="alpha-erode"></feMorphology><feConvolveMatrix order="3,3" divisor="1" kernelMatrix="0 1 0 1 1 1 0 1 0" in="alpha-erode" result="alpha-round"></feConvolveMatrix><feMorphology operator="dilate" radius="3.5" in="alpha-round" result="dilate-shadow"></feMorphology><feGaussianBlur in="dilate-shadow" stdDeviation="1.5" result="shadow"></feGaussianBlur><feFlood flood-color="#fff" result="flood-sticker"></feFlood><feComposite operator="in" in="flood-sticker" in2="alpha-round" result="comp-sticker"></feComposite><feMorphology operator="dilate" radius="3" in="comp-sticker" result="morph-sticker"></feMorphology><feConvolveMatrix order="3,3" divisor="1" kernelMatrix="0 1 0 1 1 1 0 1 0" in="morph-sticker" result="sticker"></feConvolveMatrix><feMerge><feMergeNode in="shadow"></feMergeNode><feMergeNode in="sticker"></feMergeNode><feMergeNode in="SourceGraphic"></feMergeNode></feMerge></filter></defs><g filter="url(#editing-sticker)"><g transform="matrix(1.3,0,0,1.6,-257.4,180.8)"><path d="M 158.6 -52.8 L 144.6 -52.8 L 152.8 -95.1 L 166.8 -95.1 L 158.6 -52.8 Z M 214.3 -51.5 L 214.3 -51.5 L 214.3 -51.5 Q 206.6 -51.5 206.6 -57.6 L 206.6 -57.6 L 206.6 -57.6 Q 206.6 -60.2 207.7 -65.3 L 207.7 -65.3 L 207.7 -65.3 Q 208.8 -70.4 209.2 -72.4 L 209.2 -72.4 L 209.2 -72.4 Q 210.1 -77.1 210.1 -78.5 L 210.1 -78.5 L 210.1 -78.5 Q 210.1 -81.8 207.7 -81.8 L 207.7 -81.8 L 207.7 -81.8 Q 206.1 -81.8 204.5 -79.6 L 204.5 -79.6 L 204.5 -79.6 Q 203 -77.4 202.3 -73 L 202.3 -73 L 198.3 -52.8 L 185.9 -51.5 L 189.3 -68.9 L 189.3 -68.9 Q 189.9 -71.8 190.4 -75.1 L 190.4 -75.1 L 190.4 -75.1 Q 190.9 -78.4 190.9 -78.9 L 190.9 -78.9 L 190.9 -78.9 Q 190.9 -81.8 188.7 -81.8 L 188.7 -81.8 L 188.7 -81.8 Q 187.3 -81.8 185.7 -79.6 L 185.7 -79.6 L 185.7 -79.6 Q 184.1 -77.5 183.2 -73 L 183.2 -73 L 179.3 -52.8 L 166.7 -51.5 L 173.4 -85.5 L 183.8 -86.7 L 182.7 -80.3 L 182.7 -80.3 Q 184.4 -83.7 187.5 -85.2 L 187.5 -85.2 L 187.5 -85.2 Q 190.5 -86.7 195.3 -86.7 L 195.3 -86.7 L 195.3 -86.7 Q 198.1 -86.7 199.9 -85.4 L 199.9 -85.4 L 199.9 -85.4 Q 201.7 -84 202.2 -81.9 L 202.2 -81.9 L 202.2 -81.9 Q 203.3 -84.1 206.1 -85.4 L 206.1 -85.4 L 206.1 -85.4 Q 208.9 -86.7 212.3 -86.7 L 212.3 -86.7 L 212.3 -86.7 Q 215.7 -86.7 217.4 -86 L 217.4 -86 L 217.4 -86 Q 219.1 -85.3 220.2 -84 L 220.2 -84 L 220.2 -84 Q 221.9 -81.8 221.9 -77.7 L 221.9 -77.7 L 221.9 -77.7 Q 221.9 -73.7 220.2 -65.3 L 220.2 -65.3 L 220.2 -65.3 Q 219.3 -61.2 219.3 -59.7 L 219.3 -59.7 L 219.3 -59.7 Q 219.3 -58.2 220.1 -57.3 L 220.1 -57.3 L 220.1 -57.3 Q 221 -56.4 222.3 -56.3 L 222.3 -56.3 L 222.3 -56.3 Q 221.6 -54.1 219.4 -52.8 L 219.4 -52.8 L 219.4 -52.8 Q 217.2 -51.5 214.3 -51.5 Z M 230 -54.7 L 230 -54.7 L 230 -54.7 Q 228.5 -56.4 227.8 -59 L 227.8 -59 L 227.8 -59 Q 227.1 -61.6 227.1 -65.9 L 227.1 -65.9 L 227.1 -65.9 Q 227.1 -70.2 228.6 -74.1 L 228.6 -74.1 L 228.6 -74.1 Q 230.1 -78 232.8 -80.8 L 232.8 -80.8 L 232.8 -80.8 Q 238.3 -86.7 247.4 -86.7 L 247.4 -86.7 L 247.4 -86.7 Q 250.6 -86.7 253 -85.6 L 253 -85.6 L 263.9 -86.7 L 259.2 -61.8 L 259.2 -61.8 Q 259 -61 259 -59.6 L 259 -59.6 L 259 -59.6 Q 259 -58.2 259.9 -57.3 L 259.9 -57.3 L 259.9 -57.3 Q 260.7 -56.4 262 -56.3 L 262 -56.3 L 262 -56.3 Q 261.4 -54.1 259 -52.8 L 259 -52.8 L 259 -52.8 Q 256.7 -51.5 254.1 -51.5 L 254.1 -51.5 L 254.1 -51.5 Q 251.5 -51.5 249.7 -52.5 L 249.7 -52.5 L 249.7 -52.5 Q 247.9 -53.5 247.4 -55.2 L 247.4 -55.2 L 247.4 -55.2 Q 246.4 -53.6 244.2 -52.6 L 244.2 -52.6 L 244.2 -52.6 Q 242 -51.5 239.1 -51.5 L 239.1 -51.5 L 239.1 -51.5 Q 236.2 -51.5 233.9 -52.3 L 233.9 -52.3 L 233.9 -52.3 Q 231.5 -53.1 230 -54.7 Z M 243.5 -80.7 L 243.5 -80.7 L 243.5 -80.7 Q 242.8 -79.6 242.1 -77.6 L 242.1 -77.6 L 242.1 -77.6 Q 241.5 -75.7 240.4 -70.4 L 240.4 -70.4 L 240.4 -70.4 Q 239.4 -65.2 239.4 -61.5 L 239.4 -61.5 L 239.4 -61.5 Q 239.4 -57.8 239.9 -56.7 L 239.9 -56.7 L 239.9 -56.7 Q 240.5 -55.6 241.5 -55.6 L 241.5 -55.6 L 241.5 -55.6 Q 243.6 -55.6 245.1 -57.6 L 245.1 -57.6 L 245.1 -57.6 Q 246.6 -59.5 247.2 -63 L 247.2 -63 L 250.6 -81.7 L 250.6 -81.7 Q 249.2 -82.9 247.6 -82.9 L 247.6 -82.9 L 247.6 -82.9 Q 246.1 -82.9 245.2 -82.4 L 245.2 -82.4 L 245.2 -82.4 Q 244.2 -81.9 243.5 -80.7 Z M 271.7 -79.6 L 271.7 -79.6 L 271.7 -79.6 Q 273.9 -82.6 277.2 -84.7 L 277.2 -84.7 L 277.2 -84.7 Q 280.4 -86.7 284.5 -86.7 L 284.5 -86.7 L 284.5 -86.7 Q 288.5 -86.7 290.4 -85.5 L 290.4 -85.5 L 303 -86.7 L 298.6 -62.2 L 298.6 -62.2 Q 296.4 -49.6 291.6 -44.7 L 291.6 -44.7 L 291.6 -44.7 Q 287.1 -40 278.3 -40 L 278.3 -40 L 278.3 -40 Q 271.6 -40 267.7 -42.1 L 267.7 -42.1 L 267.7 -42.1 Q 263.9 -44.2 263.9 -47.8 L 263.9 -47.8 L 263.9 -47.8 Q 263.9 -50.4 265.9 -51.9 L 265.9 -51.9 L 265.9 -51.9 Q 267.8 -53.4 270.9 -53.4 L 270.9 -53.4 L 270.9 -53.4 Q 273.6 -53.4 275.6 -52.2 L 275.6 -52.2 L 275.6 -52.2 Q 276.9 -51.5 277.4 -50.6 L 277.4 -50.6 L 277.4 -50.6 Q 276 -49.4 276 -47.2 L 276 -47.2 L 276 -47.2 Q 276 -44.5 278.5 -44.5 L 278.5 -44.5 L 278.5 -44.5 Q 282.8 -44.5 285.2 -54.6 L 285.2 -54.6 L 285.2 -54.6 Q 286 -57.4 286.5 -60.1 L 286.5 -60.1 L 286.5 -60.1 Q 283.6 -56.6 277.1 -56.6 L 277.1 -56.6 L 277.1 -56.6 Q 272.6 -56.6 270 -58.8 L 270 -58.8 L 270 -58.8 Q 267.3 -60.9 267.3 -66.1 L 267.3 -66.1 L 267.3 -66.1 Q 267.3 -69.3 268.4 -72.9 L 268.4 -72.9 L 268.4 -72.9 Q 269.5 -76.5 271.7 -79.6 Z M 280 -65.9 L 280 -65.9 L 280 -65.9 Q 280 -61.5 282.2 -61.5 L 282.2 -61.5 L 282.2 -61.5 Q 283.8 -61.5 285.2 -63.2 L 285.2 -63.2 L 285.2 -63.2 Q 286.4 -64.5 286.8 -66.5 L 286.8 -66.5 L 290.1 -83 L 290.1 -83 Q 289.8 -83 289.5 -83.2 L 289.5 -83.2 L 289.5 -83.2 Q 288.8 -83.4 288 -83.4 L 288 -83.4 L 288 -83.4 Q 284.1 -83.4 281.8 -77 L 281.8 -77 L 281.8 -77 Q 280 -72 280 -65.9 Z M 331.4 -63.6 L 331.4 -63.6 L 331.4 -63.6 Q 333 -62.5 333 -60.1 L 333 -60.1 L 333 -60.1 Q 333 -57.7 331.8 -56.2 L 331.8 -56.2 L 331.8 -56.2 Q 330.6 -54.7 328.6 -53.6 L 328.6 -53.6 L 328.6 -53.6 Q 324.5 -51.5 320.1 -51.5 L 320.1 -51.5 L 320.1 -51.5 Q 315.6 -51.5 313.1 -52.5 L 313.1 -52.5 L 313.1 -52.5 Q 310.5 -53.5 308.7 -55.2 L 308.7 -55.2 L 308.7 -55.2 Q 305.3 -58.6 305.3 -64.8 L 305.3 -64.8 L 305.3 -64.8 Q 305.3 -74.5 310.6 -80.4 L 310.6 -80.4 L 310.6 -80.4 Q 316.2 -86.7 326 -86.7 L 326 -86.7 L 326 -86.7 Q 332.1 -86.7 335.1 -84.2 L 335.1 -84.2 L 335.1 -84.2 Q 337.3 -82.3 337.3 -79.1 L 337.3 -79.1 L 337.3 -79.1 Q 337.3 -67.9 317.9 -67.9 L 317.9 -67.9 L 317.9 -67.9 Q 317.6 -66.2 317.6 -64.8 L 317.6 -64.8 L 317.6 -64.8 Q 317.6 -61.8 318.9 -60.7 L 318.9 -60.7 L 318.9 -60.7 Q 320.3 -59.6 322.7 -59.6 L 322.7 -59.6 L 322.7 -59.6 Q 325.1 -59.6 327.7 -60.7 L 327.7 -60.7 L 327.7 -60.7 Q 330.3 -61.8 331.4 -63.6 Z M 318.3 -70.6 L 318.3 -70.6 L 318.3 -70.6 Q 322.9 -70.6 325.5 -73.4 L 325.5 -73.4 L 325.5 -73.4 Q 328.1 -76.1 328.1 -80.4 L 328.1 -80.4 L 328.1 -80.4 Q 328.1 -81.9 327.6 -82.7 L 327.6 -82.7 L 327.6 -82.7 Q 327 -83.5 326 -83.5 L 326 -83.5 L 326 -83.5 Q 324.9 -83.5 323.9 -83.1 L 323.9 -83.1 L 323.9 -83.1 Q 323 -82.6 322 -81.2 L 322 -81.2 L 322 -81.2 Q 319.7 -78 318.3 -70.6 Z M 358.7 -75.3 L 358.7 -75.3 L 358.7 -75.3 Q 359.6 -77.6 359.6 -79.7 L 359.6 -79.7 L 359.6 -79.7 Q 359.6 -83.5 356.5 -83.5 L 356.5 -83.5 L 356.5 -83.5 Q 354.9 -83.5 353.6 -82 L 353.6 -82 L 353.6 -82 Q 352.3 -80.6 352.3 -78.8 L 352.3 -78.8 L 352.3 -78.8 Q 352.3 -77.5 353.3 -76.5 L 353.3 -76.5 L 353.3 -76.5 Q 354.8 -75.1 358.5 -72.8 L 358.5 -72.8 L 358.5 -72.8 Q 362.3 -70.5 363.7 -68.6 L 363.7 -68.6 L 363.7 -68.6 Q 365.2 -66.7 365.2 -64.1 L 365.2 -64.1 L 365.2 -64.1 Q 365.2 -61.5 363.9 -59.2 L 363.9 -59.2 L 363.9 -59.2 Q 362.7 -56.8 360.4 -55.1 L 360.4 -55.1 L 360.4 -55.1 Q 355.6 -51.5 348 -51.5 L 348 -51.5 L 348 -51.5 Q 343.8 -51.5 340.6 -53.7 L 340.6 -53.7 L 340.6 -53.7 Q 337.4 -55.8 337.4 -58.3 L 337.4 -58.3 L 337.4 -58.3 Q 337.4 -60.8 339.2 -62.3 L 339.2 -62.3 L 339.2 -62.3 Q 341.1 -63.8 343.7 -63.8 L 343.7 -63.8 L 343.7 -63.8 Q 346.4 -63.8 348.1 -62.7 L 348.1 -62.7 L 348.1 -62.7 Q 347.3 -60.6 347.3 -59.2 L 347.3 -59.2 L 347.3 -59.2 Q 347.3 -55 350.8 -55 L 350.8 -55 L 350.8 -55 Q 352.4 -55 353.4 -56 L 353.4 -56 L 353.4 -56 Q 354.4 -56.9 354.4 -58.6 L 354.4 -58.6 L 354.4 -58.6 Q 354.4 -61.8 348.9 -65.3 L 348.9 -65.3 L 348.9 -65.3 Q 344.4 -68.2 343.4 -69.4 L 343.4 -69.4 L 343.4 -69.4 Q 341.7 -71.4 341.7 -74 L 341.7 -74 L 341.7 -74 Q 341.7 -76.6 342.9 -79 L 342.9 -79 L 342.9 -79 Q 344.1 -81.4 346.4 -83.2 L 346.4 -83.2 L 346.4 -83.2 Q 351 -86.7 359.2 -86.7 L 359.2 -86.7 L 359.2 -86.7 Q 363.3 -86.7 365.8 -85.1 L 365.8 -85.1 L 365.8 -85.1 Q 368.3 -83.4 368.3 -80.6 L 368.3 -80.6 L 368.3 -80.6 Q 368.3 -77.8 366.6 -76.2 L 366.6 -76.2 L 366.6 -76.2 Q 364.9 -74.6 361.8 -74.6 L 361.8 -74.6 L 361.8 -74.6 Q 359.7 -74.6 358.7 -75.3 Z M 409.7 -73.4 L 422.7 -74.6 L 422.7 -74.6 Q 418 -64.5 418 -52.8 L 418 -52.8 L 418 -52.8 Q 416.3 -51.5 413.8 -51.5 L 413.8 -51.5 L 413.8 -51.5 Q 411.3 -51.5 409.7 -52.7 L 409.7 -52.7 L 409.7 -52.7 Q 408.1 -53.9 407.7 -55.1 L 407.7 -55.1 L 407.7 -55.1 Q 406.1 -53.5 403.6 -52.5 L 403.6 -52.5 L 403.6 -52.5 Q 401 -51.5 398.2 -51.5 L 398.2 -51.5 L 398.2 -51.5 Q 395.5 -51.5 393.1 -52.4 L 393.1 -52.4 L 393.1 -52.4 Q 390.7 -53.3 388.8 -55.3 L 388.8 -55.3 L 388.8 -55.3 Q 384.7 -59.7 384.7 -67.9 L 384.7 -67.9 L 384.7 -67.9 Q 384.7 -80.7 391.6 -88.4 L 391.6 -88.4 L 391.6 -88.4 Q 398.6 -96.3 411.1 -96.3 L 411.1 -96.3 L 411.1 -96.3 Q 419.7 -96.3 422.8 -91.9 L 422.8 -91.9 L 422.8 -91.9 Q 423.7 -90.4 423.7 -88.8 L 423.7 -88.8 L 423.7 -88.8 Q 423.7 -87.1 423 -85.6 L 423 -85.6 L 423 -85.6 Q 422.3 -84.2 421.1 -83 L 421.1 -83 L 421.1 -83 Q 418.4 -80.5 415 -80.5 L 415 -80.5 L 415 -80.5 Q 413.6 -80.5 412.4 -80.9 L 412.4 -80.9 L 412.4 -80.9 Q 412.6 -82.8 412.6 -85.1 L 412.6 -85.1 L 412.6 -85.1 Q 412.6 -87.3 412.4 -88.3 L 412.4 -88.3 L 412.4 -88.3 Q 412.3 -89.4 411.9 -90.2 L 411.9 -90.2 L 411.9 -90.2 Q 411.1 -91.9 409.2 -91.9 L 409.2 -91.9 L 409.2 -91.9 Q 407.4 -91.9 405.4 -90 L 405.4 -90 L 405.4 -90 Q 403.4 -88 401.8 -84.8 L 401.8 -84.8 L 401.8 -84.8 Q 398.3 -77.6 398.3 -69 L 398.3 -69 L 398.3 -69 Q 398.3 -65 399.8 -62.2 L 399.8 -62.2 L 399.8 -62.2 Q 401.5 -59.2 404.4 -59.2 L 404.4 -59.2 L 404.4 -59.2 Q 405.4 -59.2 406.4 -59.7 L 406.4 -59.7 L 406.4 -59.7 Q 407.3 -60.2 407.7 -60.6 L 407.7 -60.6 L 409.7 -73.4 Z M 428.6 -54.7 L 428.6 -54.7 L 428.6 -54.7 Q 427.1 -56.4 426.4 -59 L 426.4 -59 L 426.4 -59 Q 425.7 -61.6 425.7 -65.9 L 425.7 -65.9 L 425.7 -65.9 Q 425.7 -70.2 427.2 -74.1 L 427.2 -74.1 L 427.2 -74.1 Q 428.7 -78 431.4 -80.8 L 431.4 -80.8 L 431.4 -80.8 Q 436.9 -86.7 446 -86.7 L 446 -86.7 L 446 -86.7 Q 449.2 -86.7 451.6 -85.6 L 451.6 -85.6 L 462.5 -86.7 L 457.8 -61.8 L 457.8 -61.8 Q 457.6 -61 457.6 -59.6 L 457.6 -59.6 L 457.6 -59.6 Q 457.6 -58.2 458.5 -57.3 L 458.5 -57.3 L 458.5 -57.3 Q 459.3 -56.4 460.6 -56.3 L 460.6 -56.3 L 460.6 -56.3 Q 460 -54.1 457.6 -52.8 L 457.6 -52.8 L 457.6 -52.8 Q 455.3 -51.5 452.7 -51.5 L 452.7 -51.5 L 452.7 -51.5 Q 450 -51.5 448.3 -52.5 L 448.3 -52.5 L 448.3 -52.5 Q 446.5 -53.5 446 -55.2 L 446 -55.2 L 446 -55.2 Q 445 -53.6 442.8 -52.6 L 442.8 -52.6 L 442.8 -52.6 Q 440.6 -51.5 437.7 -51.5 L 437.7 -51.5 L 437.7 -51.5 Q 434.8 -51.5 432.4 -52.3 L 432.4 -52.3 L 432.4 -52.3 Q 430.1 -53.1 428.6 -54.7 Z M 442.1 -80.7 L 442.1 -80.7 L 442.1 -80.7 Q 441.3 -79.6 440.7 -77.6 L 440.7 -77.6 L 440.7 -77.6 Q 440.1 -75.7 439 -70.4 L 439 -70.4 L 439 -70.4 Q 438 -65.2 438 -61.5 L 438 -61.5 L 438 -61.5 Q 438 -57.8 438.5 -56.7 L 438.5 -56.7 L 438.5 -56.7 Q 439.1 -55.6 440.1 -55.6 L 440.1 -55.6 L 440.1 -55.6 Q 442.2 -55.6 443.7 -57.6 L 443.7 -57.6 L 443.7 -57.6 Q 445.2 -59.5 445.8 -63 L 445.8 -63 L 449.2 -81.7 L 449.2 -81.7 Q 447.8 -82.9 446.2 -82.9 L 446.2 -82.9 L 446.2 -82.9 Q 444.7 -82.9 443.7 -82.4 L 443.7 -82.4 L 443.7 -82.4 Q 442.8 -81.9 442.1 -80.7 Z M 481.3 -56.3 L 481.3 -56.3 L 481.3 -56.3 Q 479.3 -51.5 473 -51.5 L 473 -51.5 L 473 -51.5 Q 469.8 -51.5 467.7 -53.8 L 467.7 -53.8 L 467.7 -53.8 Q 466 -55.6 466 -57.7 L 466 -57.7 L 466 -57.7 Q 466 -62.5 468.3 -73 L 468.3 -73 L 473 -97.6 L 486 -98.9 L 479.7 -66.5 L 479.7 -66.5 Q 478.7 -61.8 478.7 -60.1 L 478.7 -60.1 L 478.7 -60.1 Q 478.7 -56.5 481.3 -56.3 Z M 502 -56.3 L 502 -56.3 L 502 -56.3 Q 500 -51.5 493.7 -51.5 L 493.7 -51.5 L 493.7 -51.5 Q 490.5 -51.5 488.4 -53.8 L 488.4 -53.8 L 488.4 -53.8 Q 486.8 -55.6 486.8 -57.7 L 486.8 -57.7 L 486.8 -57.7 Q 486.8 -62.5 489 -73 L 489 -73 L 493.7 -97.6 L 506.7 -98.9 L 500.5 -66.5 L 500.5 -66.5 Q 499.4 -61.8 499.4 -60.1 L 499.4 -60.1 L 499.4 -60.1 Q 499.4 -56.5 502 -56.3 Z M 533.4 -63.6 L 533.4 -63.6 L 533.4 -63.6 Q 535 -62.5 535 -60.1 L 535 -60.1 L 535 -60.1 Q 535 -57.7 533.8 -56.2 L 533.8 -56.2 L 533.8 -56.2 Q 532.5 -54.7 530.6 -53.6 L 530.6 -53.6 L 530.6 -53.6 Q 526.5 -51.5 522 -51.5 L 522 -51.5 L 522 -51.5 Q 517.6 -51.5 515 -52.5 L 515 -52.5 L 515 -52.5 Q 512.4 -53.5 510.7 -55.2 L 510.7 -55.2 L 510.7 -55.2 Q 507.3 -58.6 507.3 -64.8 L 507.3 -64.8 L 507.3 -64.8 Q 507.3 -74.5 512.6 -80.4 L 512.6 -80.4 L 512.6 -80.4 Q 518.2 -86.7 528 -86.7 L 528 -86.7 L 528 -86.7 Q 534.1 -86.7 537.1 -84.2 L 537.1 -84.2 L 537.1 -84.2 Q 539.3 -82.3 539.3 -79.1 L 539.3 -79.1 L 539.3 -79.1 Q 539.3 -67.9 519.9 -67.9 L 519.9 -67.9 L 519.9 -67.9 Q 519.6 -66.2 519.6 -64.8 L 519.6 -64.8 L 519.6 -64.8 Q 519.6 -61.8 520.9 -60.7 L 520.9 -60.7 L 520.9 -60.7 Q 522.2 -59.6 524.7 -59.6 L 524.7 -59.6 L 524.7 -59.6 Q 527.1 -59.6 529.7 -60.7 L 529.7 -60.7 L 529.7 -60.7 Q 532.3 -61.8 533.4 -63.6 Z M 520.3 -70.6 L 520.3 -70.6 L 520.3 -70.6 Q 524.9 -70.6 527.5 -73.4 L 527.5 -73.4 L 527.5 -73.4 Q 530.1 -76.1 530.1 -80.4 L 530.1 -80.4 L 530.1 -80.4 Q 530.1 -81.9 529.6 -82.7 L 529.6 -82.7 L 529.6 -82.7 Q 529 -83.5 527.9 -83.5 L 527.9 -83.5 L 527.9 -83.5 Q 526.8 -83.5 525.9 -83.1 L 525.9 -83.1 L 525.9 -83.1 Q 525 -82.6 524 -81.2 L 524 -81.2 L 524 -81.2 Q 521.7 -78 520.3 -70.6 Z M 561.5 -70.8 L 561.5 -70.8 L 561.5 -70.8 Q 563.8 -74.9 563.8 -79.1 L 563.8 -79.1 L 563.8 -79.1 Q 563.8 -81.8 561.9 -81.8 L 561.9 -81.8 L 561.9 -81.8 Q 560.3 -81.8 558.7 -79.2 L 558.7 -79.2 L 558.7 -79.2 Q 557.1 -76.6 556.5 -73.2 L 556.5 -73.2 L 553.2 -52.8 L 540 -51.5 L 546.5 -85.5 L 557.1 -86.7 L 555.9 -80.3 L 555.9 -80.3 Q 559 -86.7 566.1 -86.7 L 566.1 -86.7 L 566.1 -86.7 Q 569.8 -86.7 571.8 -84.8 L 571.8 -84.8 L 571.8 -84.8 Q 573.8 -82.9 573.8 -79 L 573.8 -79 L 573.8 -79 Q 573.8 -75 571.2 -72.5 L 571.2 -72.5 L 571.2 -72.5 Q 568.6 -70 564.2 -70 L 564.2 -70 L 564.2 -70 Q 562.3 -70 561.5 -70.8 Z M 595.2 -60 L 595.2 -60 L 595.2 -60 Q 591.9 -56.6 585.8 -56.6 L 585.8 -56.6 L 585.8 -56.6 Q 578.2 -56.6 576.6 -62.2 L 576.6 -62.2 L 576.6 -62.2 Q 576.1 -63.8 576.1 -65.7 L 576.1 -65.7 L 576.1 -65.7 Q 576.1 -67.5 576.4 -69.5 L 576.4 -69.5 L 579.5 -85.5 L 592.4 -86.7 L 588.9 -68.1 L 588.9 -68.1 Q 588.8 -67.3 588.6 -66.4 L 588.6 -66.4 L 588.6 -66.4 Q 588.4 -65.5 588.4 -64.6 L 588.4 -64.6 L 588.4 -64.6 Q 588.4 -63.6 588.7 -63 L 588.7 -63 L 588.7 -63 Q 589.1 -62.4 589.5 -62 L 589.5 -62 L 589.5 -62 Q 590.3 -61.5 591.6 -61.5 L 591.6 -61.5 L 591.6 -61.5 Q 593 -61.5 594.2 -63.2 L 594.2 -63.2 L 594.2 -63.2 Q 595.4 -64.8 596 -67.7 L 596 -67.7 L 599.5 -85.5 L 612.1 -86.7 L 607.3 -61.6 L 607.3 -61.6 Q 604.9 -49.3 600.1 -44.4 L 600.1 -44.4 L 600.1 -44.4 Q 597.6 -41.9 594.3 -40.9 L 594.3 -40.9 L 594.3 -40.9 Q 591.1 -40 586.9 -40 L 586.9 -40 L 586.9 -40 Q 580.2 -40 576.4 -42.1 L 576.4 -42.1 L 576.4 -42.1 Q 572.5 -44.2 572.5 -47.7 L 572.5 -47.7 L 572.5 -47.7 Q 572.5 -50.3 574.5 -51.8 L 574.5 -51.8 L 574.5 -51.8 Q 576.5 -53.3 579.6 -53.3 L 579.6 -53.3 L 579.6 -53.3 Q 582.3 -53.3 584.3 -52.2 L 584.3 -52.2 L 584.3 -52.2 Q 585.5 -51.5 586.1 -50.6 L 586.1 -50.6 L 586.1 -50.6 Q 584.6 -49.3 584.6 -47.2 L 584.6 -47.2 L 584.6 -47.2 Q 584.6 -44.4 587.2 -44.4 L 587.2 -44.4 L 587.2 -44.4 Q 591.4 -44.4 593.9 -54.1 L 593.9 -54.1 L 593.9 -54.1 Q 594.6 -57 595.2 -60 Z" fill="url(#editing-sticker-gradient)" stroke="#dce4eb" stroke-width="2.5"></path></g></g><style>text {
  font-size: 64px;
  font-family: Arial Black;
  dominant-baseline: central;
  text-anchor: middle;
}</style></svg>